<?xml version="1.0" encoding="utf-8"?>
<!-- Generator: Adobe Illustrator 27.8.1, SVG Export Plug-In . SVG Version: 6.00 Build 0)  -->
<svg version="1.1" id="julee" xmlns="http://www.w3.org/2000/svg" xmlns:xlink="http://www.w3.org/1999/xlink" x="0px" y="0px"
	 viewBox="0 0 89 89" style="enable-background:new 0 0 89 89;" xml:space="preserve">
<style type="text/css">
	.st0{fill:#4253AF;stroke:#FFFFFF;stroke-miterlimit:10;}
	.st1{fill:#FFFFFF;stroke:#4253AF;stroke-width:0.25;stroke-miterlimit:10;}
</style>
<circle class="st0" cx="44.8" cy="44.4" r="41.6"/>
<g>
	<path class="st1" d="M3.9,61.5c1.6-0.1,3-0.6,3.8-1.6c1-1.2,1.3-2.9,1.3-8V34.1h3.5v19.2c0,4.1-0.6,6.8-2.3,8.7
		c-1.6,1.7-4.1,2.4-6,2.4L3.9,61.5z M13,28.2c0,1.3-0.8,2.4-2.2,2.4c-1.3,0-2.2-1.1-2.2-2.4c0-1.4,0.9-2.4,2.2-2.4
		C12.2,25.8,13,26.8,13,28.2z"/>
	<path class="st1" d="M34.6,49.6c0,2.2,0,4.1,0.2,5.8h-3.1l-0.2-3.5h-0.1c-0.9,1.7-3,3.9-6.4,3.9c-3,0-6.7-1.8-6.7-9.3V34.1h3.5
		v11.7c0,4,1.1,6.7,4.3,6.7c2.4,0,4-1.8,4.6-3.5c0.2-0.6,0.3-1.3,0.3-2v-13h3.5V49.6z"/>
	<path class="st1" d="M40.4,24.3H44v31.1h-3.5V24.3z"/>
	<path class="st1" d="M51.8,45.4c0.1,5.2,3.1,7.4,6.6,7.4c2.5,0,4-0.5,5.4-1.1l0.6,2.8c-1.2,0.6-3.4,1.3-6.4,1.3
		c-6,0-9.5-4.3-9.5-10.7s3.4-11.4,9.1-11.4c6.3,0,8,6.1,8,10c0,0.8-0.1,1.4-0.1,1.8H51.8z M62.2,42.7c0-2.5-0.9-6.3-4.9-6.3
		c-3.6,0-5.1,3.6-5.4,6.3H62.2z"/>
	<path class="st1" d="M71.9,45.4c0.1,5.2,3.1,7.4,6.6,7.4c2.5,0,4-0.5,5.4-1.1l0.6,2.8c-1.2,0.6-3.4,1.3-6.4,1.3
		c-6,0-9.5-4.3-9.5-10.7s3.4-11.4,9.1-11.4c6.3,0,8,6.1,8,10c0,0.8-0.1,1.4-0.1,1.8H71.9z M82.2,42.7c0-2.5-0.9-6.3-4.9-6.3
		c-3.6,0-5.1,3.6-5.4,6.3H82.2z"/>
</g>
</svg>
